<?xml version="1.0" encoding="UTF-8" standalone="no" ?>
<!DOCTYPE svg PUBLIC "-//W3C//DTD SVG 1.1//EN" "http://www.w3.org/Graphics/SVG/1.1/DTD/svg11.dtd">
<svg xmlns="http://www.w3.org/2000/svg" xmlns:xlink="http://www.w3.org/1999/xlink" version="1.1" width="1280" height="1024" viewBox="0 0 1280 1024" xml:space="preserve">
<desc>Created with Fabric.js 5.3.0</desc>
<defs>
</defs>
<g transform="matrix(1 0 0 1 640 512)" id="background-logo"  >
<rect style="stroke: none; stroke-width: 0; stroke-dasharray: none; stroke-linecap: butt; stroke-dashoffset: 0; stroke-linejoin: miter; stroke-miterlimit: 4; fill: rgb(255,255,255); fill-opacity: 0; fill-rule: nonzero; opacity: 1;"  paint-order="stroke"  x="-640" y="-512" rx="0" ry="0" width="1280" height="1024" />
</g>
<g transform="matrix(1.9211538461538462 0 0 1.9211538461538462 826.2177769187153 503.88285531753326)" id="text-logo"  >
<g style=""  paint-order="stroke"   >
		<g transform="matrix(1 0 0 1 0 0)" id="text-logo-path-0"  >
<path style="stroke: rgb(255,255,255); stroke-width: 0; stroke-dasharray: none; stroke-linecap: butt; stroke-dashoffset: 0; stroke-linejoin: miter; stroke-miterlimit: 4; fill: rgb(84,84,85); fill-rule: nonzero; opacity: 1;"  paint-order="stroke"  transform=" translate(-189.79, 28.725)" d="M 7.56 0 L 7.56 -57.44 L 17.93 -57.44 L 28.45 -28.37 Q 29.46 -25.49 30.36 -22.6 Q 31.25 -19.72 32.27 -16.84 L 32.27 -16.84 L 32.66 -16.84 Q 33.67 -19.72 34.53 -22.6 Q 35.39 -25.49 36.4 -28.37 L 36.4 -28.37 L 46.77 -57.44 L 57.21 -57.44 L 57.21 0 L 48.79 0 L 48.79 -28.37 Q 48.79 -30.32 48.91 -32.58 Q 49.03 -34.84 49.22 -37.22 Q 49.42 -39.59 49.61 -41.89 Q 49.8 -44.19 49.96 -46.14 L 49.96 -46.14 L 49.65 -46.14 L 45.05 -32.89 L 35.07 -5.53 L 29.46 -5.53 L 19.41 -32.89 L 14.89 -46.14 L 14.58 -46.14 Q 14.73 -44.19 14.93 -41.89 Q 15.12 -39.59 15.28 -37.22 Q 15.43 -34.84 15.55 -32.58 Q 15.67 -30.32 15.67 -28.37 L 15.67 -28.37 L 15.67 0 L 7.56 0 Z M 108.88 1.01 L 108.88 1.01 Q 104.13 1.01 100.19 -0.35 Q 96.26 -1.71 93.45 -4.79 Q 90.65 -7.87 89.09 -12.74 Q 87.53 -17.61 87.53 -24.63 L 87.53 -24.63 L 87.53 -57.44 L 96.57 -57.44 L 96.57 -24.01 Q 96.57 -19.17 97.51 -15.86 Q 98.44 -12.55 100.08 -10.56 Q 101.71 -8.57 103.97 -7.72 Q 106.23 -6.86 108.88 -6.86 L 108.88 -6.86 Q 111.61 -6.86 113.91 -7.72 Q 116.21 -8.57 117.89 -10.56 Q 119.56 -12.55 120.5 -15.86 Q 121.43 -19.17 121.43 -24.01 L 121.43 -24.01 L 121.43 -57.44 L 130.16 -57.44 L 130.16 -24.63 Q 130.16 -17.61 128.64 -12.74 Q 127.12 -7.87 124.32 -4.79 Q 121.51 -1.71 117.58 -0.35 Q 113.64 1.01 108.88 1.01 Z M 176.07 1.01 L 176.07 1.01 Q 170.15 1.01 164.89 -1.21 Q 159.63 -3.43 155.65 -7.4 L 155.65 -7.4 L 160.95 -13.64 Q 164.07 -10.52 168.04 -8.69 Q 172.02 -6.86 176.23 -6.86 L 176.23 -6.86 Q 181.45 -6.86 184.25 -9.08 Q 187.06 -11.3 187.06 -14.96 L 187.06 -14.96 Q 187.06 -16.91 186.36 -18.28 Q 185.66 -19.64 184.45 -20.65 Q 183.24 -21.67 181.57 -22.49 Q 179.89 -23.3 177.86 -24.16 L 177.86 -24.16 L 169.91 -27.59 Q 167.81 -28.45 165.74 -29.73 Q 163.68 -31.02 162 -32.85 Q 160.33 -34.68 159.27 -37.1 Q 158.22 -39.52 158.22 -42.63 L 158.22 -42.63 Q 158.22 -46.06 159.63 -48.95 Q 161.03 -51.83 163.56 -53.94 Q 166.09 -56.04 169.56 -57.25 Q 173.03 -58.46 177.08 -58.46 L 177.08 -58.46 Q 182.15 -58.46 186.67 -56.51 Q 191.19 -54.56 194.47 -51.21 L 194.47 -51.21 L 189.71 -45.44 Q 186.98 -47.86 183.94 -49.22 Q 180.9 -50.58 177.08 -50.58 L 177.08 -50.58 Q 172.64 -50.58 170.03 -48.64 Q 167.42 -46.69 167.42 -43.26 L 167.42 -43.26 Q 167.42 -41.39 168.2 -40.06 Q 168.98 -38.74 170.3 -37.72 Q 171.63 -36.71 173.3 -35.97 Q 174.98 -35.23 176.69 -34.53 L 176.69 -34.53 L 184.57 -31.18 Q 187.14 -30.09 189.28 -28.72 Q 191.43 -27.36 192.98 -25.49 Q 194.54 -23.62 195.4 -21.24 Q 196.26 -18.86 196.26 -15.67 L 196.26 -15.67 Q 196.26 -12.24 194.85 -9.2 Q 193.45 -6.16 190.84 -3.9 Q 188.23 -1.64 184.49 -0.31 Q 180.75 1.01 176.07 1.01 Z M 243.72 1.01 L 243.72 1.01 Q 238.97 1.01 235.03 -0.35 Q 231.1 -1.71 228.29 -4.79 Q 225.49 -7.87 223.93 -12.74 Q 222.37 -17.61 222.37 -24.63 L 222.37 -24.63 L 222.37 -57.44 L 231.41 -57.44 L 231.41 -24.01 Q 231.41 -19.17 232.35 -15.86 Q 233.28 -12.55 234.92 -10.56 Q 236.55 -8.57 238.81 -7.72 Q 241.07 -6.86 243.72 -6.86 L 243.72 -6.86 Q 246.45 -6.86 248.75 -7.72 Q 251.05 -8.57 252.73 -10.56 Q 254.4 -12.55 255.34 -15.86 Q 256.27 -19.17 256.27 -24.01 L 256.27 -24.01 L 256.27 -57.44 L 265 -57.44 L 265 -24.63 Q 265 -17.61 263.48 -12.74 Q 261.96 -7.87 259.16 -4.79 Q 256.35 -1.71 252.42 -0.35 Q 248.48 1.01 243.72 1.01 Z M 295.4 0 L 295.4 -57.44 L 313.17 -57.44 Q 317.61 -57.44 321.32 -56.7 Q 325.02 -55.96 327.71 -54.25 Q 330.4 -52.53 331.92 -49.84 Q 333.44 -47.15 333.44 -43.26 L 333.44 -43.26 Q 333.44 -39.13 331.29 -35.66 Q 329.15 -32.19 325.25 -30.87 L 325.25 -30.87 L 325.25 -30.48 Q 330.16 -29.38 333.36 -26.03 Q 336.55 -22.68 336.55 -16.84 L 336.55 -16.84 Q 336.55 -12.55 334.92 -9.39 Q 333.28 -6.24 330.36 -4.13 Q 327.43 -2.03 323.38 -1.01 Q 319.33 0 314.57 0 L 314.57 0 L 295.4 0 Z M 304.44 -33.44 L 312.16 -33.44 Q 318.78 -33.44 321.67 -35.74 Q 324.55 -38.04 324.55 -42.09 L 324.55 -42.09 Q 324.55 -46.61 321.51 -48.48 Q 318.47 -50.35 312.39 -50.35 L 312.39 -50.35 L 304.44 -50.35 L 304.44 -33.44 Z M 304.44 -7.09 L 313.56 -7.09 Q 320.34 -7.09 324 -9.55 Q 327.67 -12 327.67 -17.3 L 327.67 -17.3 Q 327.67 -22.21 324.04 -24.43 Q 320.42 -26.66 313.56 -26.66 L 313.56 -26.66 L 304.44 -26.66 L 304.44 -7.09 Z M 362.98 0 L 362.98 -57.44 L 372.02 -57.44 L 372.02 0 L 362.98 0 Z" stroke-linecap="round" />
</g>
</g>
</g>
<g transform="matrix(1.3329834136158096 0 0 1.3329834136158085 217.3438372093023 512.0226438188495)" id="logo-logo"  >
<g style=""  paint-order="stroke"   >
		<g transform="matrix(0.24475146576936777 0 0 -0.24475146576936777 -0.12675078761947134 -0.050296426215624024)"  >
<path style="stroke: none; stroke-width: 1; stroke-dasharray: none; stroke-linecap: butt; stroke-dashoffset: 0; stroke-linejoin: miter; stroke-miterlimit: 4; fill: rgb(255,190,88); fill-rule: nonzero; opacity: 1;"  paint-order="stroke"  transform=" translate(-1624.481876057065, -1460.315)" d="M 1623.63 1542.92 C 1619.0600000000002 1542.92 1614.7600000000002 1541.13 1611.5300000000002 1537.9 C 1611.5300000000002 1537.9 1565.0600000000002 1491.3400000000001 1547.0100000000002 1473.22 C 1540.3700000000001 1466.55 1540.3700000000001 1455.71 1547.0200000000002 1449.06 L 1613.2200000000003 1382.73 C 1616.4500000000003 1379.49 1620.7600000000002 1377.71 1625.3300000000002 1377.71 L 1625.3300000000002 1377.71 C 1629.9 1377.71 1634.2 1379.49 1637.43 1382.72 C 1656.73 1402.01 1701.95 1447.4 1701.95 1447.4 C 1708.6000000000001 1454.0600000000002 1708.5900000000001 1464.91 1701.94 1471.5700000000002 L 1635.75 1537.89 C 1632.51 1541.13 1628.21 1542.92 1623.63 1542.92" stroke-linecap="round" />
</g>
		<g transform="matrix(0.24475146576936777 0 0 -0.24475146576936777 -50.041489201155116 -42.06066176819877)"  >
<path style="stroke: none; stroke-width: 1; stroke-dasharray: none; stroke-linecap: butt; stroke-dashoffset: 0; stroke-linejoin: miter; stroke-miterlimit: 4; fill: rgb(255,87,88); fill-rule: nonzero; opacity: 1;"  paint-order="stroke"  transform=" translate(-1420.5413674409865, -1631.96)" d="M 1382.18 1729.18 C 1378.0700000000002 1729.18 1373.92 1729.02 1369.8500000000001 1728.7 C 1361.2500000000002 1728.05 1354.45 1721.05 1354.0500000000002 1712.43 C 1352.0500000000002 1670.04 1366.9400000000003 1628.76 1393.88 1601.99 C 1414.74 1581.27 1435.5600000000002 1560.52 1456.3600000000001 1539.75 C 1459.6000000000001 1536.52 1463.89 1534.74 1468.44 1534.74 C 1477.76 1534.74 1485.45 1542.32 1485.5700000000002 1551.64 L 1487.2100000000003 1678.8500000000001 C 1487.2700000000002 1683.5700000000002 1485.3600000000004 1688.16 1481.9700000000003 1691.43 C 1457.0600000000002 1715.42 1420.6800000000003 1729.18 1382.1800000000003 1729.18" stroke-linecap="round" />
</g>
		<g transform="matrix(0.24475146576936777 0 0 -0.24475146576936777 42.68048707660216 -50.44707074278611)"  >
<path style="stroke: none; stroke-width: 1; stroke-dasharray: none; stroke-linecap: butt; stroke-dashoffset: 0; stroke-linejoin: miter; stroke-miterlimit: 4; fill: rgb(255,87,88); fill-rule: nonzero; opacity: 1;"  paint-order="stroke"  transform=" translate(-1799.3827197748283, -1666.225)" d="M 1863.92 1729.59 C 1824.8500000000001 1729.59 1786.72 1712.4499999999998 1753.66 1680 C 1736.64 1663.32 1719.8400000000001 1646.55 1707.1000000000001 1633.81 C 1702.22 1628.9299999999998 1700.7500000000002 1621.6499999999999 1703.3500000000001 1615.26 C 1705.95 1608.87 1712.0800000000002 1604.68 1718.9800000000002 1604.59 L 1849.0100000000002 1602.86 C 1854.1600000000003 1602.86 1859.0000000000002 1605.1499999999999 1862.2600000000002 1609.1299999999999 C 1888.0700000000002 1640.58 1898.6000000000001 1672.4399999999998 1896.4000000000003 1712.3999999999999 C 1895.9600000000003 1720.6799999999998 1889.6700000000003 1727.4399999999998 1881.4600000000003 1728.4799999999998 C 1875.6300000000003 1729.2199999999998 1869.7300000000002 1729.5899999999997 1863.9200000000003 1729.5899999999997" stroke-linecap="round" />
</g>
		<g transform="matrix(0.24475146576936777 0 0 -0.24475146576936777 50.00016581489018 41.973530246384826)"  >
<path style="stroke: none; stroke-width: 1; stroke-dasharray: none; stroke-linecap: butt; stroke-dashoffset: 0; stroke-linejoin: miter; stroke-miterlimit: 4; fill: rgb(255,87,88); fill-rule: nonzero; opacity: 1;"  paint-order="stroke"  transform=" translate(-1829.2892975159618, -1288.6150000000002)" d="M 1779.63 1386.76 C 1775.1100000000001 1386.76 1770.68 1384.93 1767.48 1381.73 C 1764.26 1378.5 1762.5 1374.2 1762.51 1369.63 C 1762.57 1336.98 1762.69 1251.21 1762.7 1240.5300000000002 C 1762.72 1235.9200000000003 1764.63 1231.4300000000003 1767.95 1228.2400000000002 C 1792.8600000000001 1204.2400000000002 1829.24 1190.4700000000003 1867.76 1190.4700000000003 L 1867.76 1190.4700000000003 C 1871.86 1190.4700000000003 1876.01 1190.6300000000003 1880.1 1190.9500000000003 C 1888.6999999999998 1191.6200000000003 1895.48 1198.6100000000004 1895.8899999999999 1207.2200000000003 C 1897.8899999999999 1249.6000000000004 1882.9999999999998 1290.8900000000003 1856.06 1317.6600000000003 C 1834.58 1338.9900000000002 1813.1399999999999 1360.3600000000004 1791.72 1381.7500000000002 C 1788.48 1384.9800000000002 1784.19 1386.7600000000002 1779.63 1386.7600000000002" stroke-linecap="round" />
</g>
		<g transform="matrix(0.24475146576936777 0 0 -0.24475146576936777 -42.40921091302687 49.976903177043226)"  >
<path style="stroke: none; stroke-width: 1; stroke-dasharray: none; stroke-linecap: butt; stroke-dashoffset: 0; stroke-linejoin: miter; stroke-miterlimit: 4; fill: rgb(255,87,88); fill-rule: nonzero; opacity: 1;"  paint-order="stroke"  transform=" translate(-1451.7251573485826, -1255.915)" d="M 1403.02 1321.77 C 1397.8899999999999 1321.77 1393.07 1319.51 1389.8 1315.54 C 1362.9099999999999 1282.99 1349.7 1245.56 1351.6 1207.31 C 1352.01 1199.01 1358.29 1192.22 1366.55 1191.1699999999998 C 1372.3799999999999 1190.4299999999998 1378.27 1190.06 1384.07 1190.06 C 1423.1399999999999 1190.06 1461.28 1207.21 1494.34 1239.6499999999999 C 1500.04 1245.2399999999998 1536.58 1280.84 1546.97 1291.1599999999999 C 1551.8700000000001 1296.04 1553.3700000000001 1303.33 1550.77 1309.7299999999998 C 1548.16 1316.1499999999999 1542 1320.3399999999997 1535.07 1320.4199999999998 L 1403.02 1321.7699999999998" stroke-linecap="round" />
</g>
		<g transform="matrix(0.24475146576936777 0 0 -0.24475146576936777 -50.04137348255466 -42.06800431217172)"  >
<path style="stroke: none; stroke-width: 1; stroke-dasharray: none; stroke-linecap: butt; stroke-dashoffset: 0; stroke-linejoin: miter; stroke-miterlimit: 4; fill: rgb(255,222,89); fill-rule: nonzero; opacity: 1;"  paint-order="stroke"  transform=" translate(-1420.5418402414255, -1631.9899999999998)" d="M 1442.71 1662.18 C 1446.64 1659.5700000000002 1449.3400000000001 1655.4 1450.13 1650.74 L 1469.74 1534.8 C 1478.46 1535.47 1485.46 1542.76 1485.57 1551.6399999999999 L 1487.21 1678.85 C 1487.27 1683.57 1485.3600000000001 1688.1599999999999 1481.97 1691.4299999999998 C 1457.06 1715.4199999999998 1420.68 1729.1799999999998 1382.18 1729.1799999999998 C 1378.0700000000002 1729.1799999999998 1373.92 1729.0199999999998 1369.8500000000001 1728.6999999999998 C 1361.2500000000002 1728.0499999999997 1354.45 1721.0499999999997 1354.0500000000002 1712.4299999999998 C 1353.5900000000001 1702.7099999999998 1354.0300000000002 1693.0499999999997 1355.2900000000002 1683.61 C 1387.2300000000002 1685.86 1418.3500000000001 1678.36 1442.7100000000003 1662.1799999999998" stroke-linecap="round" />
</g>
		<g transform="matrix(0.24475146576936777 0 0 -0.24475146576936777 42.68270077695718 -50.44707074278611)"  >
<path style="stroke: none; stroke-width: 1; stroke-dasharray: none; stroke-linecap: butt; stroke-dashoffset: 0; stroke-linejoin: miter; stroke-miterlimit: 4; fill: rgb(255,222,89); fill-rule: nonzero; opacity: 1;"  paint-order="stroke"  transform=" translate(-1799.3917644616417, -1666.225)" d="M 1862.26 1609.13 C 1888.07 1640.5800000000002 1898.6 1672.44 1896.4 1712.4 C 1895.96 1720.68 1889.67 1727.44 1881.46 1728.48 C 1875.63 1729.22 1869.73 1729.59 1863.92 1729.59 C 1859.6100000000001 1729.59 1855.3000000000002 1729.37 1851.02 1728.9499999999998 C 1852.73 1701.5099999999998 1846.42 1676.1399999999999 1831.6 1649.4499999999998 C 1829.1 1644.9499999999998 1824.76 1641.84 1819.6899999999998 1640.9099999999999 L 1702.1 1621.07 C 1702.1799999999998 1619.11 1702.58 1617.1499999999999 1703.35 1615.26 C 1705.9499999999998 1608.87 1712.08 1604.68 1718.98 1604.59 L 1849.01 1602.86 C 1854.16 1602.86 1859 1605.1499999999999 1862.26 1609.1299999999999" stroke-linecap="round" />
</g>
		<g transform="matrix(0.24475146576936777 0 0 -0.24475146576936777 49.999590071528985 41.98209654768678)"  >
<path style="stroke: none; stroke-width: 1; stroke-dasharray: none; stroke-linecap: butt; stroke-dashoffset: 0; stroke-linejoin: miter; stroke-miterlimit: 4; fill: rgb(255,222,89); fill-rule: nonzero; opacity: 1;"  paint-order="stroke"  transform=" translate(-1829.286945156766, -1288.5800000000002)" d="M 1807.17 1257.82 C 1803.3300000000002 1260.37 1800.65 1264.4299999999998 1799.8000000000002 1268.97 C 1798.0400000000002 1278.58 1784.9 1350.02 1778.15 1386.69 C 1774.15 1386.3400000000001 1770.3300000000002 1384.5800000000002 1767.48 1381.73 C 1764.26 1378.5 1762.5 1374.2 1762.51 1369.63 C 1762.57 1336.98 1762.69 1251.21 1762.7 1240.5300000000002 C 1762.72 1235.9200000000003 1764.63 1231.4300000000003 1767.95 1228.2400000000002 C 1792.8600000000001 1204.2400000000002 1829.24 1190.4700000000003 1867.76 1190.4700000000003 L 1867.76 1190.4700000000003 C 1871.86 1190.4700000000003 1876.01 1190.6300000000003 1880.1 1190.9500000000003 C 1888.6999999999998 1191.6200000000003 1895.48 1198.6100000000004 1895.8899999999999 1207.2200000000003 C 1896.35 1217.0500000000002 1895.8899999999999 1226.8200000000002 1894.6 1236.3600000000004 C 1862.6599999999999 1234.1200000000003 1831.54 1241.6300000000003 1807.1699999999998 1257.8200000000004" stroke-linecap="round" />
</g>
		<g transform="matrix(0.24475146576936777 0 0 -0.24475146576936777 -42.42143106723 49.976903177043226)"  >
<path style="stroke: none; stroke-width: 1; stroke-dasharray: none; stroke-linecap: butt; stroke-dashoffset: 0; stroke-linejoin: miter; stroke-miterlimit: 4; fill: rgb(255,222,89); fill-rule: nonzero; opacity: 1;"  paint-order="stroke"  transform=" translate(-1451.6752285190876, -1255.915)" d="M 1419.49 1275.85 C 1422 1280.34 1426.34 1283.4299999999998 1431.38 1284.35 L 1551.93 1305.06 C 1551.76 1306.6399999999999 1551.38 1308.21 1550.77 1309.73 C 1548.16 1316.15 1542 1320.34 1535.07 1320.42 L 1403.02 1321.77 C 1397.8899999999999 1321.77 1393.07 1319.51 1389.8 1315.54 C 1362.9099999999999 1282.99 1349.7 1245.56 1351.6 1207.31 C 1352.01 1199.01 1358.29 1192.22 1366.55 1191.1699999999998 C 1372.3799999999999 1190.4299999999998 1378.27 1190.06 1384.07 1190.06 C 1388.59 1190.06 1393.1 1190.3 1397.59 1190.75 C 1396.6299999999999 1219.24 1404.03 1248.21 1419.49 1275.85" stroke-linecap="round" />
</g>
		<g transform="matrix(0.24475146576936777 0 0 -0.24475146576936777 -15.64051750475329 -95.49724928962479)"  >
<path style="stroke: none; stroke-width: 1; stroke-dasharray: none; stroke-linecap: butt; stroke-dashoffset: 0; stroke-linejoin: miter; stroke-miterlimit: 4; fill: rgb(255,190,88); fill-rule: nonzero; opacity: 1;"  paint-order="stroke"  transform=" translate(-1561.096079088018, -1850.29)" d="M 1626.21 1977.52 C 1624.22 1977.52 1622.26 1977.48 1620.39 1977.4 L 1619.5500000000002 1977.38 C 1581.65 1976.2900000000002 1544.8400000000001 1961.3600000000001 1521.0700000000002 1937.44 C 1489.0500000000002 1905.21 1395.5800000000002 1811.73 1374.15 1790.31 C 1369.3000000000002 1785.46 1367.8200000000002 1778.21 1370.3700000000001 1771.85 C 1372.93 1765.48 1379.0200000000002 1761.26 1385.8700000000001 1761.11 C 1385.8700000000001 1761.11 1417.0300000000002 1758.3799999999999 1431.0300000000002 1754.4799999999998 C 1452.0100000000002 1748.6299999999999 1471.1800000000003 1739.2199999999998 1488.0200000000002 1726.5099999999998 C 1490.9700000000003 1724.2799999999997 1494.63 1723.0599999999997 1498.3200000000002 1723.0599999999997 L 1498.3200000000002 1723.0599999999997 C 1504.13 1723.0599999999997 1509.4900000000002 1725.9699999999998 1512.66 1730.8399999999997 C 1514.98 1734.4099999999996 1604.18 1829.9699999999998 1638.45 1855.4499999999996 C 1667 1876.6799999999996 1700.97 1888.7099999999996 1736.67 1890.2499999999995 C 1743.49 1890.5399999999995 1749.47 1894.8399999999995 1751.92 1901.2099999999996 C 1754.3600000000001 1907.5899999999997 1752.79 1914.7899999999995 1747.91 1919.5599999999995 C 1743.88 1923.5099999999995 1730.25 1936.7699999999995 1724.2900000000002 1941.4999999999995 C 1694.6200000000001 1965.0599999999995 1660.7000000000003 1977.5199999999995 1626.2100000000003 1977.5199999999995" stroke-linecap="round" />
</g>
		<g transform="matrix(0.24475146576936777 0 0 -0.24475146576936777 -94.77530297108285 15.152440870048736)"  >
<path style="stroke: none; stroke-width: 1; stroke-dasharray: none; stroke-linecap: butt; stroke-dashoffset: 0; stroke-linejoin: miter; stroke-miterlimit: 4; fill: rgb(255,190,88); fill-rule: nonzero; opacity: 1;"  paint-order="stroke"  transform=" translate(-1237.7689634870057, -1398.2)" d="M 1180.2 1589.43 C 1175.6100000000001 1589.43 1171.29 1587.63 1168.05 1584.3500000000001 C 1160.12 1576.3300000000002 1147.05 1563.0500000000002 1146.37 1562.3200000000002 C 1124.9699999999998 1539.5700000000002 1111.6499999999999 1506.7500000000002 1109.77 1472.19 C 1104 1426.79 1120.76 1382.6100000000001 1158.26 1344.38 C 1183.49 1318.68 1290.65 1211.95 1290.65 1211.95 C 1293.88 1208.74 1298.16 1206.97 1302.69 1206.97 L 1302.69 1206.97 C 1311.8300000000002 1206.97 1319.3500000000001 1214.1200000000001 1319.8 1223.26 C 1319.8799999999999 1224.8799999999999 1319.98 1226.5 1320.11 1228.12 C 1321.1699999999998 1241.1299999999999 1323.6599999999999 1254.09 1327.52 1266.6299999999999 C 1333.9 1287.35 1343.85 1306.7199999999998 1357.17 1324.28 C 1357.3500000000001 1324.5 1357.53 1324.73 1357.71 1324.96 L 1366.88 1336.96 L 1354.8000000000002 1345.48 C 1347.9700000000003 1351.14 1276.67 1419.23 1250.8000000000002 1445.79 C 1217.41 1480.07 1198.41 1525.1499999999999 1197.3200000000002 1572.73 C 1197.1000000000001 1582.1 1189.5800000000002 1589.43 1180.2000000000003 1589.43" stroke-linecap="round" />
</g>
		<g transform="matrix(0.24475146576936777 0 0 -0.24475146576936777 95.5022443125161 -15.470862527014646)"  >
<path style="stroke: none; stroke-width: 1; stroke-dasharray: none; stroke-linecap: butt; stroke-dashoffset: 0; stroke-linejoin: miter; stroke-miterlimit: 4; fill: rgb(255,190,88); fill-rule: nonzero; opacity: 1;"  paint-order="stroke"  transform=" translate(-2015.2006601081805, -1523.3200000000002)" d="M 1945.38 1714.53 C 1936.17 1714.53 1929.5300000000002 1707.24 1928.2800000000002 1698.1 C 1921.0600000000002 1645.6999999999998 1904.9 1614.4299999999998 1892.4 1597.49 C 1889.7 1593.82 1888.5500000000002 1589.14 1889.27 1584.65 C 1889.99 1580.0900000000001 1892.46 1576.1000000000001 1896.22 1573.41 C 1899.8 1570.8500000000001 1986.49 1486.8400000000001 1999.13 1473.8600000000001 C 2032.0700000000002 1440.0500000000002 2051.04 1395.5800000000002 2052.56 1348.66 C 2052.86 1339.38 2060.38 1332.1100000000001 2069.67 1332.1100000000001 C 2074.26 1332.1100000000001 2078.57 1333.91 2081.81 1337.18 C 2087.82 1343.23 2102.34 1358.05 2103.59 1359.44 C 2119.11 1376.77 2130.02 1399.0800000000002 2135.1800000000003 1423.99 C 2151.09 1477.74 2136.05 1530.03 2091.67 1575.27 C 2066.9 1600.51 1957.43 1709.55 1957.43 1709.55 C 1954.2 1712.76 1949.92 1714.53 1945.38 1714.53" stroke-linecap="round" />
</g>
		<g transform="matrix(0.24475146576936777 0 0 -0.24475146576936777 15.423194693917708 95.4445053487515)"  >
<path style="stroke: none; stroke-width: 1; stroke-dasharray: none; stroke-linecap: butt; stroke-dashoffset: 0; stroke-linejoin: miter; stroke-miterlimit: 4; fill: rgb(255,190,88); fill-rule: nonzero; opacity: 1;"  paint-order="stroke"  transform=" translate(-1688.0154914029692, -1070.1444999999999)" d="M 1750.32 1197.59 C 1744.46 1197.59 1739.07 1194.6399999999999 1735.9099999999999 1189.6999999999998 C 1733.6599999999999 1186.1799999999998 1643.6499999999999 1089.5499999999997 1609.55 1064.1999999999998 C 1581.59 1043.4099999999999 1548.31 1031.4099999999999 1513.33 1029.5199999999998 C 1506.37 1029.1499999999999 1500.3799999999999 1024.6499999999999 1498.09 1018.0699999999997 C 1495.8 1011.4899999999997 1497.6899999999998 1004.2499999999997 1502.8999999999999 999.6289999999997 C 1509.7199999999998 993.6019999999996 1536.9999999999998 969.8979999999997 1540.9499999999998 967.1989999999997 L 1541.36 966.9299999999997 C 1560.79 954.5589999999997 1581.52 946.7189999999997 1603.11 943.6209999999998 C 1607.6699999999998 942.9999999999998 1619.81 942.6989999999997 1628.86 942.6989999999997 C 1633.3999999999999 942.6989999999997 1637.1599999999999 942.7699999999998 1638.81 942.9299999999997 C 1673.22 946.1599999999997 1705.33 960.4689999999997 1726.9299999999998 982.2109999999997 C 1759.58 1015.0699999999997 1852.61 1108.1099999999997 1873.8899999999999 1129.3799999999997 C 1878.7099999999998 1134.2099999999996 1880.2099999999998 1141.4299999999996 1877.6999999999998 1147.7699999999998 C 1875.2599999999998 1153.9199999999998 1869.5199999999998 1158.0899999999997 1862.9599999999998 1158.5499999999997 L 1862.0099999999998 1158.5899999999997 C 1847.3299999999997 1159.0699999999997 1832.8299999999997 1161.2899999999997 1818.9099999999999 1165.1699999999996 C 1797.4299999999998 1171.1599999999996 1777.87 1180.8699999999997 1760.7499999999998 1194.0399999999995 C 1757.7699999999998 1196.3299999999995 1754.0699999999997 1197.5899999999995 1750.3199999999997 1197.5899999999995" stroke-linecap="round" />
</g>
		<g transform="matrix(0.24475146576936777 0 0 -0.24475146576936777 -17.105851688978134 -99.75470103668295)"  >
<path style="stroke: none; stroke-width: 1; stroke-dasharray: none; stroke-linecap: butt; stroke-dashoffset: 0; stroke-linejoin: miter; stroke-miterlimit: 4; fill: rgb(255,87,88); fill-rule: nonzero; opacity: 1;"  paint-order="stroke"  transform=" translate(-1555.1090498393123, -1867.685)" d="M 1430.02 1802.9 C 1451.49 1818.98 1545.05 1889.1000000000001 1576.69 1912.96 C 1601.68 1931.82 1634.54 1942.2 1669.21 1942.2 C 1675.54 1942.2 1681.92 1941.8400000000001 1688.17 1941.13 L 1688.73 1941.0700000000002 C 1690.74 1940.8600000000001 1692.81 1940.6100000000001 1694.89 1940.3100000000002 C 1710.92 1938.0100000000002 1726.42 1933.2500000000002 1741.0800000000002 1926.18 C 1735.44 1931.5900000000001 1728.2100000000003 1938.39 1724.2900000000002 1941.5 C 1694.6200000000001 1965.06 1660.7000000000003 1977.52 1626.2100000000003 1977.52 C 1624.2200000000003 1977.52 1622.2600000000002 1977.48 1620.3900000000003 1977.4 L 1619.5500000000004 1977.38 C 1581.6500000000003 1976.2900000000002 1544.8400000000004 1961.3600000000001 1521.0700000000004 1937.44 C 1489.0500000000004 1905.21 1395.5800000000004 1811.73 1374.1500000000003 1790.31 C 1369.3000000000004 1785.46 1367.8200000000004 1778.21 1370.3700000000003 1771.85 C 1372.9300000000003 1765.48 1379.0200000000004 1761.26 1385.8700000000003 1761.11 C 1385.8700000000003 1761.11 1400.1000000000004 1759.86 1413.6500000000003 1757.85 C 1409.6700000000003 1774.8 1416.0600000000004 1792.4399999999998 1430.0200000000002 1802.8999999999999" stroke-linecap="round" />
</g>
		<g transform="matrix(0.24475146576936777 0 0 -0.24475146576936777 -100.07172469033205 16.849792285159253)"  >
<path style="stroke: none; stroke-width: 1; stroke-dasharray: none; stroke-linecap: butt; stroke-dashoffset: 0; stroke-linejoin: miter; stroke-miterlimit: 4; fill: rgb(255,87,88); fill-rule: nonzero; opacity: 1;"  paint-order="stroke"  transform=" translate(-1216.1289634870056, -1391.2649999999999)" d="M 1313.94 1250.49 C 1311.8700000000001 1250.49 1309.77 1250.64 1307.71 1250.94 C 1296.19 1252.5900000000001 1285.98 1258.63 1278.96 1267.94 C 1275.68 1272.31 1198.4 1375.01 1179.7 1400.47 C 1146.5900000000001 1445.55 1135.82 1494.39 1148.53 1541.78 C 1150.94 1553.48 1154.62 1564.84 1159.3799999999999 1575.56 C 1152.9899999999998 1569.08 1146.83 1562.81 1146.37 1562.32 C 1124.9699999999998 1539.57 1111.6499999999999 1506.75 1109.77 1472.19 C 1104 1426.79 1120.76 1382.6100000000001 1158.26 1344.38 C 1183.49 1318.68 1290.65 1211.95 1290.65 1211.95 C 1293.88 1208.74 1298.16 1206.97 1302.69 1206.97 L 1302.69 1206.97 C 1311.8300000000002 1206.97 1319.3500000000001 1214.1200000000001 1319.8 1223.26 C 1319.8799999999999 1224.8799999999999 1319.98 1226.5 1320.11 1228.12 C 1320.75 1235.9799999999998 1321.9199999999998 1243.83 1323.6 1251.57 C 1320.48 1250.87 1317.25 1250.49 1313.9499999999998 1250.49 C 1313.9499999999998 1250.49 1313.9499999999998 1250.49 1313.9399999999998 1250.49" stroke-linecap="round" />
</g>
		<g transform="matrix(0.24475146576936777 0 0 -0.24475146576936777 99.6618267920324 -16.96139895355003)"  >
<path style="stroke: none; stroke-width: 1; stroke-dasharray: none; stroke-linecap: butt; stroke-dashoffset: 0; stroke-linejoin: miter; stroke-miterlimit: 4; fill: rgb(255,87,88); fill-rule: nonzero; opacity: 1;"  paint-order="stroke"  transform=" translate(-2032.1957880696855, -1529.4099999999999)" d="M 2091.67 1575.27 C 2066.9 1600.51 1957.43 1709.55 1957.43 1709.55 C 1954.2 1712.76 1949.92 1714.53 1945.38 1714.53 C 1936.16 1714.53 1929.5300000000002 1707.24 1928.2800000000002 1698.1 C 1926.8500000000001 1687.76 1925.0700000000002 1678.25 1923.0500000000002 1669.5 C 1926.7400000000002 1670.53 1930.6100000000001 1671.08 1934.5900000000001 1671.08 C 1936.64 1671.08 1938.7200000000003 1670.9299999999998 1940.7700000000002 1670.6399999999999 C 1952.2900000000002 1668.9899999999998 1962.5000000000002 1662.9499999999998 1969.5100000000002 1653.6399999999999 C 1972.88 1649.1699999999998 2051.8100000000004 1544.2599999999998 2070.17 1519.27 C 2089.5 1492.95 2101.27 1465.41 2105.15 1437.3899999999999 C 2109.08 1409.02 2104.89 1380.9099999999999 2092.69 1353.83 C 2091.5 1350.59 2090.21 1347.4099999999999 2088.83 1344.29 C 2095.2599999999998 1350.83 2102.71 1358.46 2103.59 1359.44 C 2119.11 1376.77 2130.02 1399.0800000000002 2135.1800000000003 1423.99 C 2151.09 1477.74 2136.05 1530.03 2091.67 1575.27" stroke-linecap="round" />
</g>
		<g transform="matrix(0.24475146576936777 0 0 -0.24475146576936777 17.13515720185916 99.85737427657321)"  >
<path style="stroke: none; stroke-width: 1; stroke-dasharray: none; stroke-linecap: butt; stroke-dashoffset: 0; stroke-linejoin: miter; stroke-miterlimit: 4; fill: rgb(255,87,88); fill-rule: nonzero; opacity: 1;"  paint-order="stroke"  transform=" translate(-1695.0101890754017, -1052.1145)" d="M 1862.96 1158.55 L 1862.01 1158.59 C 1852.81 1158.8899999999999 1843.67 1159.8799999999999 1834.71 1161.53 C 1838.39 1144.78 1831.97 1127.43 1818.21 1117.11 C 1791.08 1096.79 1702.32 1030.27 1671.49 1007.0099999999999 C 1646.5 988.1479999999999 1613.72 977.7699999999999 1579.18 977.7699999999999 L 1579.17 977.7699999999999 C 1576.43 977.7699999999999 1573.66 977.8399999999999 1570.93 977.9689999999998 C 1569.97 978.0199999999999 1567.41 978.1409999999998 1559.54 979.2699999999999 C 1556.46 979.7109999999999 1540.76 982.0119999999998 1533.4099999999999 984.0899999999999 L 1533.1499999999999 984.16 C 1525.61 986.371 1518.2699999999998 989.148 1511.12 992.4409999999999 C 1521.85 983.1089999999999 1537.9799999999998 969.2299999999999 1540.9499999999998 967.199 L 1541.36 966.93 C 1560.79 954.559 1581.52 946.7189999999999 1603.11 943.621 C 1607.6699999999998 943 1619.81 942.699 1628.86 942.699 C 1633.3999999999999 942.699 1637.1599999999999 942.77 1638.81 942.93 C 1673.22 946.16 1705.33 960.4689999999999 1726.9299999999998 982.2109999999999 C 1759.58 1015.0699999999999 1852.61 1108.11 1873.8899999999999 1129.3799999999999 C 1878.7099999999998 1134.2099999999998 1880.2099999999998 1141.4299999999998 1877.6999999999998 1147.77 C 1875.2599999999998 1153.92 1869.5199999999998 1158.09 1862.9599999999998 1158.55" stroke-linecap="round" />
</g>
		<g transform="matrix(0.24475146576936777 0 0 -0.24475146576936777 -55.11588985006421 -17.023810577321257)"  >
<path style="stroke: none; stroke-width: 1; stroke-dasharray: none; stroke-linecap: butt; stroke-dashoffset: 0; stroke-linejoin: miter; stroke-miterlimit: 4; fill: rgb(255,222,89); fill-rule: nonzero; opacity: 1;"  paint-order="stroke"  transform=" translate(-1399.8084961057407, -1529.665)" d="M 1305.81 1706.3 C 1302.3899999999999 1706.3 1299.08 1705.28 1296.23 1703.36 C 1289.71 1698.9699999999998 1283.55 1694.07 1277.93 1688.8 C 1213.74 1628.62 1216.42 1535.6299999999999 1259.19 1486.52 C 1286.49 1455.18 1372.99 1370.77 1379.73 1366.98 C 1396.21 1357.73 1415.6100000000001 1353.03 1437.39 1353.03 L 1437.4 1353.03 C 1438.2 1353.03 1554.27 1353.49 1554.27 1353.49 C 1561.22 1353.49 1567.43 1357.64 1570.09 1364.06 C 1572.74 1370.48 1571.28 1377.8 1566.37 1382.71 C 1537.79 1411.27 1417.6399999999999 1531.28 1394.11 1554.68 C 1350.5 1598.03 1328.6799999999998 1638.3000000000002 1323.36 1685.26 C 1323.1599999999999 1686.98 1323.01 1688.71 1322.8899999999999 1690.43 C 1322.2399999999998 1699.3300000000002 1314.7399999999998 1706.3 1305.81 1706.3" stroke-linecap="round" />
</g>
		<g transform="matrix(0.24475146576936777 0 0 -0.24475146576936777 18.189642941678187 -56.16201746850095)"  >
<path style="stroke: none; stroke-width: 1; stroke-dasharray: none; stroke-linecap: butt; stroke-dashoffset: 0; stroke-linejoin: miter; stroke-miterlimit: 4; fill: rgb(255,222,89); fill-rule: nonzero; opacity: 1;"  paint-order="stroke"  transform=" translate(-1699.3185830476473, -1689.5750000000003)" d="M 1742.85 1858.24 C 1704.01 1858.24 1666.36 1843.29 1636.84 1816.14 C 1609.08 1790.6000000000001 1583.12 1763.8400000000001 1556.76 1736.38 C 1548.73 1728.0100000000002 1542.07 1718.91 1536.96 1709.3100000000002 C 1535.33 1706.2700000000002 1533.82 1703.0600000000002 1532.45 1699.7900000000002 C 1526.65 1685.88 1523.76 1670.8200000000002 1523.8500000000001 1655.0400000000002 C 1523.89 1647.6000000000001 1523.88 1561.6900000000003 1523.8400000000001 1538.0600000000002 C 1523.8300000000002 1533.4700000000003 1525.6000000000001 1529.17 1528.8200000000002 1525.9400000000003 C 1532.0200000000002 1522.7500000000002 1536.44 1520.9100000000003 1540.9600000000003 1520.9100000000003 L 1540.9600000000003 1520.9100000000003 C 1545.5200000000002 1520.9100000000003 1549.8100000000002 1522.6900000000003 1553.0400000000002 1525.9300000000003 C 1582.3300000000002 1555.2100000000003 1702.3400000000001 1674.9200000000003 1727.3000000000002 1699.5600000000004 C 1767.1100000000001 1738.8600000000004 1811.1200000000001 1759.4100000000003 1858.1100000000001 1760.6300000000003 C 1864.2900000000002 1760.7900000000004 1869.93 1764.2900000000004 1872.8200000000002 1769.7500000000002 C 1875.7000000000003 1775.2000000000003 1875.42 1781.8200000000002 1872.0700000000002 1787.0300000000002 C 1843.3500000000001 1831.6200000000001 1795.0500000000002 1858.2400000000002 1742.8500000000001 1858.2400000000002" stroke-linecap="round" />
</g>
		<g transform="matrix(0.24475146576936777 0 0 -0.24475146576936777 55.10009123151207 17.16185040401524)"  >
<path style="stroke: none; stroke-width: 1; stroke-dasharray: none; stroke-linecap: butt; stroke-dashoffset: 0; stroke-linejoin: miter; stroke-miterlimit: 4; fill: rgb(255,222,89); fill-rule: nonzero; opacity: 1;"  paint-order="stroke"  transform=" translate(-1850.126457369491, -1389.9899999999998)" d="M 1812.56 1566.62 C 1811.75 1566.62 1695.6599999999999 1566.1599999999999 1695.6599999999999 1566.1599999999999 C 1688.7099999999998 1566.1599999999999 1682.5099999999998 1562.0099999999998 1679.85 1555.6 C 1677.1899999999998 1549.1799999999998 1678.6499999999999 1541.86 1683.57 1536.9399999999998 C 1711.9099999999999 1508.62 1831.6599999999999 1388.9999999999998 1855.83 1364.9699999999998 C 1899.4399999999998 1321.62 1921.26 1281.35 1926.57 1234.3899999999999 C 1926.77 1232.6599999999999 1926.9199999999998 1230.9299999999998 1927.05 1229.2199999999998 C 1927.7 1220.3199999999997 1935.2 1213.36 1944.12 1213.36 C 1947.54 1213.36 1950.86 1214.37 1953.6999999999998 1216.29 C 1960.2199999999998 1220.67 1966.3799999999999 1225.57 1972.0099999999998 1230.85 C 2036.1899999999998 1291.03 2033.5199999999998 1384.02 1990.7499999999998 1433.12 C 1961.6799999999998 1466.5 1884.7699999999998 1543.1299999999999 1878.0699999999997 1547.77 C 1875.0999999999997 1549.83 1871.9599999999998 1551.76 1868.7399999999998 1553.5 C 1852.6099999999997 1562.2 1833.7099999999998 1566.62 1812.5599999999997 1566.62" stroke-linecap="round" />
</g>
		<g transform="matrix(0.24475146576936777 0 0 -0.24475146576936777 -18.679517812156462 56.30128105252359)"  >
<path style="stroke: none; stroke-width: 1; stroke-dasharray: none; stroke-linecap: butt; stroke-dashoffset: 0; stroke-linejoin: miter; stroke-miterlimit: 4; fill: rgb(255,222,89); fill-rule: nonzero; opacity: 1;"  paint-order="stroke"  transform=" translate(-1548.6794004060328, -1230.0750000000003)" d="M 1707.04 1398.74 C 1702.48 1398.74 1698.19 1396.96 1694.95 1393.72 C 1669.25 1368.02 1547.29 1246.3400000000001 1520.69 1220.0900000000001 C 1480.88 1180.7900000000002 1436.8700000000001 1160.2400000000002 1389.89 1159.0200000000002 C 1383.7 1158.8600000000001 1378.0700000000002 1155.3600000000001 1375.18 1149.9100000000003 C 1372.29 1144.4500000000003 1372.5800000000002 1137.8300000000004 1375.93 1132.6200000000003 C 1404.64 1088.0300000000004 1452.94 1061.4100000000003 1505.14 1061.4100000000003 L 1505.15 1061.4100000000003 C 1543.99 1061.4100000000003 1581.64 1076.3600000000004 1611.15 1103.5100000000002 C 1633.99 1124.5200000000002 1705.15 1198.9000000000003 1711.8000000000002 1211.8300000000002 C 1713.42 1214.9800000000002 1714.89 1218.2100000000003 1716.16 1221.41 C 1721.5500000000002 1234.9 1724.23 1249.43 1724.15 1264.6100000000001 C 1724.1000000000001 1272.44 1724.1200000000001 1357.3200000000002 1724.16 1381.5900000000001 C 1724.17 1386.18 1722.4 1390.4800000000002 1719.17 1393.71 C 1715.98 1396.91 1711.5500000000002 1398.74 1707.04 1398.74" stroke-linecap="round" />
</g>
		<g transform="matrix(0.24475146576936777 0 0 -0.24475146576936777 -58.082828060511474 -17.023810577321257)"  >
<path style="stroke: none; stroke-width: 1; stroke-dasharray: none; stroke-linecap: butt; stroke-dashoffset: 0; stroke-linejoin: miter; stroke-miterlimit: 4; fill: rgb(255,87,88); fill-rule: nonzero; opacity: 1;"  paint-order="stroke"  transform=" translate(-1387.6862471086988, -1529.665)" d="M 1437.39 1353.03 L 1437.4 1353.03 C 1438.0800000000002 1353.03 1521.91 1353.36 1547.15 1353.46 C 1525.52 1358.54 1438.9 1378.8600000000001 1438.22 1379.02 L 1438.21 1379.03 C 1417.02 1384.08 1399.24 1393.16 1385.3700000000001 1405.98 C 1379.69 1411.24 1315.16 1513.43 1295.88 1550.25 C 1273.0600000000002 1593.86 1278.3500000000001 1656.55 1315.2900000000002 1703.3899999999999 C 1312.5600000000002 1705.2199999999998 1309.3000000000002 1706.3 1305.8100000000002 1706.3 C 1302.39 1706.3 1299.0800000000002 1705.28 1296.2300000000002 1703.36 C 1289.7100000000003 1698.9699999999998 1283.5500000000002 1694.07 1277.9300000000003 1688.8 C 1213.7400000000002 1628.62 1216.4200000000003 1535.6299999999999 1259.1900000000003 1486.52 C 1286.4900000000002 1455.18 1372.9900000000002 1370.77 1379.7300000000002 1366.98 C 1396.2100000000003 1357.73 1415.6100000000004 1353.03 1437.3900000000003 1353.03" stroke-linecap="round" />
</g>
		<g transform="matrix(0.24475146576936777 0 0 -0.24475146576936777 18.189648098854605 -58.08331647479048)"  >
<path style="stroke: none; stroke-width: 1; stroke-dasharray: none; stroke-linecap: butt; stroke-dashoffset: 0; stroke-linejoin: miter; stroke-miterlimit: 4; fill: rgb(255,87,88); fill-rule: nonzero; opacity: 1;"  paint-order="stroke"  transform=" translate(-1699.3186041187219, -1697.4250000000002)" d="M 1551.46 1652.7 C 1555.04 1668.06 1561.3500000000001 1682.03 1570.22 1694.22 C 1572.31 1697.09 1574.53 1699.8500000000001 1576.81 1702.44 C 1584.02 1710.5900000000001 1592.61 1717.89 1602.36 1724.16 C 1634.3799999999999 1744.75 1665.85 1764.75 1698.78 1783.14 C 1733.79 1802.7 1773.8799999999999 1808.49 1811.67 1799.47 C 1834.3600000000001 1794.05 1855.04 1783.64 1872.5700000000002 1769.31 C 1872.65 1769.46 1872.7400000000002 1769.6 1872.8200000000002 1769.75 C 1875.7000000000003 1775.2 1875.42 1781.82 1872.0700000000002 1787.04 C 1843.3500000000001 1831.62 1795.0500000000002 1858.24 1742.8500000000001 1858.24 C 1704.0100000000002 1858.24 1666.3600000000001 1843.29 1636.8400000000001 1816.14 C 1609.0800000000002 1790.6000000000001 1583.1200000000001 1763.8400000000001 1556.7600000000002 1736.38 C 1548.7300000000002 1728.0100000000002 1542.0700000000002 1718.91 1536.9600000000003 1709.3100000000002 C 1535.3300000000002 1706.2700000000002 1533.8200000000002 1703.0600000000002 1532.4500000000003 1699.7900000000002 C 1526.6500000000003 1685.88 1523.7600000000002 1670.8200000000002 1523.8500000000004 1655.0400000000002 C 1523.8900000000003 1647.6000000000001 1523.8800000000003 1561.6900000000003 1523.8400000000004 1538.0600000000002 C 1523.8400000000004 1537.5700000000002 1523.8700000000003 1537.0900000000001 1523.9000000000003 1536.6100000000001 C 1523.9800000000002 1537.38 1524.0900000000004 1538.15 1524.2800000000004 1538.91 C 1529.8000000000004 1561.89 1549.7700000000004 1645.45 1551.4600000000005 1652.7" stroke-linecap="round" />
</g>
		<g transform="matrix(0.24475146576936777 0 0 -0.24475146576936777 58.06784291038451 17.16185040401524)"  >
<path style="stroke: none; stroke-width: 1; stroke-dasharray: none; stroke-linecap: butt; stroke-dashoffset: 0; stroke-linejoin: miter; stroke-miterlimit: 4; fill: rgb(255,87,88); fill-rule: nonzero; opacity: 1;"  paint-order="stroke"  transform=" translate(-1862.2520300174156, -1389.9899999999998)" d="M 1990.75 1433.12 C 1961.68 1466.5 1884.77 1543.1299999999999 1878.07 1547.77 C 1875.1 1549.83 1871.96 1551.76 1868.74 1553.5 C 1852.61 1562.2 1833.71 1566.62 1812.56 1566.62 C 1811.87 1566.62 1728.03 1566.29 1702.79 1566.1899999999998 C 1724.42 1561.11 1811.05 1540.7799999999997 1811.74 1540.62 C 1832.31 1535.7099999999998 1849.67 1527.03 1863.34 1514.81 C 1866.06 1512.3799999999999 1868.6699999999998 1509.77 1871.08 1507.08 C 1876.52 1501 1933.53 1408.61 1954.05 1369.3999999999999 C 1976.8799999999999 1325.78 1971.59 1263.1 1934.6399999999999 1216.2599999999998 C 1937.37 1214.4299999999998 1940.6299999999999 1213.3599999999997 1944.12 1213.3599999999997 C 1947.54 1213.3599999999997 1950.86 1214.3699999999997 1953.6999999999998 1216.2899999999997 C 1960.2199999999998 1220.6699999999998 1966.3799999999999 1225.5699999999997 1972.0099999999998 1230.8499999999997 C 2036.1899999999998 1291.0299999999997 2033.5199999999998 1384.0199999999998 1990.7499999999998 1433.1199999999997" stroke-linecap="round" />
</g>
		<g transform="matrix(0.24475146576936777 0 0 -0.24475146576936777 -18.679522969305538 58.234817632101596)"  >
<path style="stroke: none; stroke-width: 1; stroke-dasharray: none; stroke-linecap: butt; stroke-dashoffset: 0; stroke-linejoin: miter; stroke-miterlimit: 4; fill: rgb(255,87,88); fill-rule: nonzero; opacity: 1;"  paint-order="stroke"  transform=" translate(-1548.6793793350694, -1222.175)" d="M 1696.59 1267.41 C 1693.1499999999999 1252.63 1687.1599999999999 1239.1100000000001 1678.79 1227.24 C 1676.81 1224.42 1674.6299999999999 1221.63 1672.32 1218.94 C 1662.85 1207.91 1576.36 1152.0800000000002 1549.27 1136.96 C 1514.26 1117.4 1474.16 1111.6100000000001 1436.3899999999999 1120.63 L 1436.3799999999999 1120.63 C 1413.7499999999998 1126.0300000000002 1393.11 1136.41 1375.62 1150.67 C 1375.4699999999998 1150.42 1375.32 1150.17 1375.1799999999998 1149.91 C 1372.2899999999997 1144.45 1372.58 1137.8300000000002 1375.9299999999998 1132.6200000000001 C 1404.6399999999999 1088.0300000000002 1452.9399999999998 1061.41 1505.1399999999999 1061.41 L 1505.1499999999999 1061.41 C 1543.9899999999998 1061.41 1581.6399999999999 1076.3600000000001 1611.1499999999999 1103.51 C 1633.9899999999998 1124.52 1705.1499999999999 1198.9 1711.8 1211.83 C 1713.4199999999998 1214.98 1714.8899999999999 1218.21 1716.1599999999999 1221.4099999999999 C 1721.55 1234.8999999999999 1724.2299999999998 1249.4299999999998 1724.1499999999999 1264.61 C 1724.1 1272.4399999999998 1724.12 1357.32 1724.1599999999999 1381.59 C 1724.1599999999999 1382.05 1724.1299999999999 1382.5 1724.1 1382.9399999999998 C 1724.02 1382.36 1723.9099999999999 1381.7699999999998 1723.77 1381.1899999999998 C 1718.09 1357.59 1698.36 1275.0299999999997 1696.59 1267.4099999999999" stroke-linecap="round" />
</g>
</g>
</g>
</svg>