<svg xmlns="http://www.w3.org/2000/svg" xml:space="preserve" width="1080" height="1080"><path d="M1623.63 1542.92c-4.57 0-8.87-1.79-12.1-5.02 0 0-46.47-46.56-64.52-64.68-6.64-6.67-6.64-17.51.01-24.16l66.2-66.33c3.23-3.24 7.54-5.02 12.11-5.02 4.57 0 8.87 1.78 12.1 5.01 19.3 19.29 64.52 64.68 64.52 64.68 6.65 6.66 6.64 17.51-.01 24.17l-66.19 66.32c-3.24 3.24-7.54 5.03-12.12 5.03" paint-order="stroke" style="stroke:none;stroke-width:1;stroke-dasharray:none;stroke-linecap:butt;stroke-dashoffset:0;stroke-linejoin:miter;stroke-miterlimit:4;fill:#ffbe58;fill-rule:nonzero;opacity:1" transform="matrix(.33 0 0 -.33 -123.328 1021.866)" vector-effect="non-scaling-stroke"/><path d="M1382.18 1729.18c-4.11 0-8.26-.16-12.33-.48-8.6-.65-15.4-7.65-15.8-16.27-2-42.39 12.89-83.67 39.83-110.44 20.86-20.72 41.68-41.47 62.48-62.24 3.24-3.23 7.53-5.01 12.08-5.01 9.32 0 17.01 7.58 17.13 16.9l1.64 127.21c.06 4.72-1.85 9.31-5.24 12.58-24.91 23.99-61.29 37.75-99.79 37.75m481.74.41c-39.07 0-77.2-17.14-110.26-49.59-17.02-16.68-33.82-33.45-46.56-46.19a17.076 17.076 0 0 1-3.75-18.55c2.6-6.39 8.73-10.58 15.63-10.67l130.03-1.73c5.15 0 9.99 2.29 13.25 6.27 25.81 31.45 36.34 63.31 34.14 103.27a17.112 17.112 0 0 1-14.94 16.08c-5.83.74-11.73 1.11-17.54 1.11m-84.29-342.83a17.3 17.3 0 0 1-12.15-5.03c-3.22-3.23-4.98-7.53-4.97-12.1.06-32.65.18-118.42.19-129.1.02-4.61 1.93-9.1 5.25-12.29 24.91-24 61.29-37.77 99.81-37.77 4.1 0 8.25.16 12.34.48 8.6.67 15.38 7.66 15.79 16.27 2 42.38-12.89 83.67-39.83 110.44-21.48 21.33-42.92 42.7-64.34 64.09-3.24 3.23-7.53 5.01-12.09 5.01m-376.61-64.99c-5.13 0-9.95-2.26-13.22-6.23-26.89-32.55-40.1-69.98-38.2-108.23.41-8.3 6.69-15.09 14.95-16.14 5.83-.74 11.72-1.11 17.52-1.11 39.07 0 77.21 17.15 110.27 49.59 5.7 5.59 42.24 41.19 52.63 51.51 4.9 4.88 6.4 12.17 3.8 18.57a17.113 17.113 0 0 1-15.7 10.69l-132.05 1.35" paint-order="stroke" style="stroke:none;stroke-width:1;stroke-dasharray:none;stroke-linecap:butt;stroke-dashoffset:0;stroke-linejoin:miter;stroke-miterlimit:4;fill:#ff5758;fill-rule:nonzero;opacity:1" transform="matrix(.33 0 0 -.33 -123.327 1021.86)" vector-effect="non-scaling-stroke"/><path d="M1442.71 1662.18a17.23 17.23 0 0 0 7.42-11.44l19.61-115.94c8.72.67 15.72 7.96 15.83 16.84l1.64 127.21c.06 4.72-1.85 9.31-5.24 12.58-24.91 23.99-61.29 37.75-99.79 37.75-4.11 0-8.26-.16-12.33-.48-8.6-.65-15.4-7.65-15.8-16.27-.46-9.72-.02-19.38 1.24-28.82 31.94 2.25 63.06-5.25 87.42-21.43m419.55-53.05c25.81 31.45 36.34 63.31 34.14 103.27a17.112 17.112 0 0 1-14.94 16.08c-5.83.74-11.73 1.11-17.54 1.11-4.31 0-8.62-.22-12.9-.64 1.71-27.44-4.6-52.81-19.42-79.5a17.1 17.1 0 0 0-11.91-8.54l-117.59-19.84c.08-1.96.48-3.92 1.25-5.81 2.6-6.39 8.73-10.58 15.63-10.67l130.03-1.73c5.15 0 9.99 2.29 13.25 6.27m-55.09-351.31a17.252 17.252 0 0 0-7.37 11.15c-1.76 9.61-14.9 81.05-21.65 117.72-4-.35-7.82-2.11-10.67-4.96-3.22-3.23-4.98-7.53-4.97-12.1.06-32.65.18-118.42.19-129.1.02-4.61 1.93-9.1 5.25-12.29 24.91-24 61.29-37.77 99.81-37.77 4.1 0 8.25.16 12.34.48 8.6.67 15.38 7.66 15.79 16.27.46 9.83 0 19.6-1.29 29.14-31.94-2.24-63.06 5.27-87.43 21.46m-387.68 18.03c2.51 4.49 6.85 7.58 11.89 8.5l120.55 20.71c-.17 1.58-.55 3.15-1.16 4.67a17.113 17.113 0 0 1-15.7 10.69l-132.05 1.35c-5.13 0-9.95-2.26-13.22-6.23-26.89-32.55-40.1-69.98-38.2-108.23.41-8.3 6.69-15.09 14.95-16.14 5.83-.74 11.72-1.11 17.52-1.11 4.52 0 9.03.24 13.52.69-.96 28.49 6.44 57.46 21.9 85.1" paint-order="stroke" style="stroke:none;stroke-width:1;stroke-dasharray:none;stroke-linecap:butt;stroke-dashoffset:0;stroke-linejoin:miter;stroke-miterlimit:4;fill:#ffde59;fill-rule:nonzero;opacity:1" transform="matrix(.33 0 0 -.33 -123.327 1021.86)" vector-effect="non-scaling-stroke"/><path d="M1626.21 1977.52c-1.99 0-3.95-.04-5.82-.12l-.84-.02c-37.9-1.09-74.71-16.02-98.48-39.94-32.02-32.23-125.49-125.71-146.92-147.13a17.087 17.087 0 0 1-3.78-18.46 17.104 17.104 0 0 1 15.5-10.74s31.16-2.73 45.16-6.63c20.98-5.85 40.15-15.26 56.99-27.97a17.18 17.18 0 0 1 10.3-3.45c5.81 0 11.17 2.91 14.34 7.78 2.32 3.57 91.52 99.13 125.79 124.61 28.55 21.23 62.52 33.26 98.22 34.8 6.82.29 12.8 4.59 15.25 10.96 2.44 6.38.87 13.58-4.01 18.35-4.03 3.95-17.66 17.21-23.62 21.94-29.67 23.56-63.59 36.02-98.08 36.02m-446.01-388.09c-4.59 0-8.91-1.8-12.15-5.08-7.93-8.02-21-21.3-21.68-22.03-21.4-22.75-34.72-55.57-36.6-90.13-5.77-45.4 10.99-89.58 48.49-127.81 25.23-25.7 132.39-132.43 132.39-132.43 3.23-3.21 7.51-4.98 12.04-4.98 9.14 0 16.66 7.15 17.11 16.29.08 1.62.18 3.24.31 4.86 1.06 13.01 3.55 25.97 7.41 38.51 6.38 20.72 16.33 40.09 29.65 57.65.18.22.36.45.54.68l9.17 12-12.08 8.52c-6.83 5.66-78.13 73.75-104 100.31-33.39 34.28-52.39 79.36-53.48 126.94-.22 9.37-7.74 16.7-17.12 16.7m765.18 125.1c-9.21 0-15.85-7.29-17.1-16.43-7.22-52.4-23.38-83.67-35.88-100.61-2.7-3.67-3.85-8.35-3.13-12.84.72-4.56 3.19-8.55 6.95-11.24 3.58-2.56 90.27-86.57 102.91-99.55 32.94-33.81 51.91-78.28 53.43-125.2.3-9.28 7.82-16.55 17.11-16.55 4.59 0 8.9 1.8 12.14 5.07 6.01 6.05 20.53 20.87 21.78 22.26 15.52 17.33 26.43 39.64 31.59 64.55 15.91 53.75.87 106.04-43.51 151.28-24.77 25.24-134.24 134.28-134.24 134.28-3.23 3.21-7.51 4.98-12.05 4.98m-195.06-516.94c-5.86 0-11.25-2.95-14.41-7.89-2.25-3.52-92.26-100.15-126.36-125.5-27.96-20.79-61.24-32.79-96.22-34.68a17.045 17.045 0 0 1-15.24-11.45c-2.29-6.58-.4-13.82 4.81-18.441 6.82-6.027 34.1-29.731 38.05-32.43l.41-.269c19.43-12.371 40.16-20.211 61.75-23.309 4.56-.621 16.7-.922 25.75-.922 4.54 0 8.3.071 9.95.231 34.41 3.23 66.52 17.539 88.12 39.281 32.65 32.859 125.68 125.899 146.96 147.169a17.113 17.113 0 0 1 3.81 18.39 17.14 17.14 0 0 1-14.74 10.78l-.95.04c-14.68.48-29.18 2.7-43.1 6.58-21.48 5.99-41.04 15.7-58.16 28.87a17.2 17.2 0 0 1-10.43 3.55" paint-order="stroke" style="stroke:none;stroke-width:1;stroke-dasharray:none;stroke-linecap:butt;stroke-dashoffset:0;stroke-linejoin:miter;stroke-miterlimit:4;fill:#ffbe58;fill-rule:nonzero;opacity:1" transform="matrix(.33 0 0 -.33 -123.33 1021.856)" vector-effect="non-scaling-stroke"/><path d="M1430.02 1802.9c21.47 16.08 115.03 86.2 146.67 110.06 24.99 18.86 57.85 29.24 92.52 29.24 6.33 0 12.71-.36 18.96-1.07l.56-.06c2.01-.21 4.08-.46 6.16-.76 16.03-2.3 31.53-7.06 46.19-14.13-5.64 5.41-12.87 12.21-16.79 15.32-29.67 23.56-63.59 36.02-98.08 36.02-1.99 0-3.95-.04-5.82-.12l-.84-.02c-37.9-1.09-74.71-16.02-98.48-39.94-32.02-32.23-125.49-125.71-146.92-147.13a17.087 17.087 0 0 1-3.78-18.46 17.104 17.104 0 0 1 15.5-10.74s14.23-1.25 27.78-3.26a43.72 43.72 0 0 0 16.37 45.05m-116.08-552.41c-2.07 0-4.17.15-6.23.45-11.52 1.65-21.73 7.69-28.75 17-3.28 4.37-80.56 107.07-99.26 132.53-33.11 45.08-43.88 93.92-31.17 141.31 2.41 11.7 6.09 23.06 10.85 33.78-6.39-6.48-12.55-12.75-13.01-13.24-21.4-22.75-34.72-55.57-36.6-90.13-5.77-45.4 10.99-89.58 48.49-127.81 25.23-25.7 132.39-132.43 132.39-132.43 3.23-3.21 7.51-4.98 12.04-4.98 9.14 0 16.66 7.15 17.11 16.29.08 1.62.18 3.24.31 4.86.64 7.86 1.81 15.71 3.49 23.45-3.12-.7-6.35-1.08-9.65-1.08h-.01m777.73 324.78c-24.77 25.24-134.24 134.28-134.24 134.28-3.23 3.21-7.51 4.98-12.05 4.98-9.22 0-15.85-7.29-17.1-16.43-1.43-10.34-3.21-19.85-5.23-28.6 3.69 1.03 7.56 1.58 11.54 1.58 2.05 0 4.13-.15 6.18-.44 11.52-1.65 21.73-7.69 28.74-17 3.37-4.47 82.3-109.38 100.66-134.37 19.33-26.32 31.1-53.86 34.98-81.88 3.93-28.37-.26-56.48-12.46-83.56-1.19-3.24-2.48-6.42-3.86-9.54 6.43 6.54 13.88 14.17 14.76 15.15 15.52 17.33 26.43 39.64 31.59 64.55 15.91 53.75.87 106.04-43.51 151.28m-228.71-416.72-.95.04c-9.2.3-18.34 1.29-27.3 2.94a43.752 43.752 0 0 0-16.5-44.42c-27.13-20.32-115.89-86.84-146.72-110.1-24.99-18.862-57.77-29.24-92.31-29.24h-.01c-2.74 0-5.51.07-8.24.199-.96.051-3.52.172-11.39 1.301-3.08.441-18.78 2.742-26.13 4.82l-.26.07c-7.54 2.211-14.88 4.988-22.03 8.281 10.73-9.332 26.86-23.211 29.83-25.242l.41-.269c19.43-12.371 40.16-20.211 61.75-23.309 4.56-.621 16.7-.922 25.75-.922 4.54 0 8.3.071 9.95.231 34.41 3.23 66.52 17.539 88.12 39.281 32.65 32.859 125.68 125.899 146.96 147.169a17.113 17.113 0 0 1 3.81 18.39 17.14 17.14 0 0 1-14.74 10.78" paint-order="stroke" style="stroke:none;stroke-width:1;stroke-dasharray:none;stroke-linecap:butt;stroke-dashoffset:0;stroke-linejoin:miter;stroke-miterlimit:4;fill:#ff5758;fill-rule:nonzero;opacity:1" transform="matrix(.33 0 0 -.33 -123.33 1021.856)" vector-effect="non-scaling-stroke"/><path d="M1305.81 1706.3c-3.42 0-6.73-1.02-9.58-2.94-6.52-4.39-12.68-9.29-18.3-14.56-64.19-60.18-61.51-153.17-18.74-202.28 27.3-31.34 113.8-115.75 120.54-119.54 16.48-9.25 35.88-13.95 57.66-13.95h.01c.8 0 116.87.46 116.87.46 6.95 0 13.16 4.15 15.82 10.57a17.083 17.083 0 0 1-3.72 18.65c-28.58 28.56-148.73 148.57-172.26 171.97-43.61 43.35-65.43 83.62-70.75 130.58-.2 1.72-.35 3.45-.47 5.17-.65 8.9-8.15 15.87-17.08 15.87m437.04 151.94c-38.84 0-76.49-14.95-106.01-42.1-27.76-25.54-53.72-52.3-80.08-79.76-8.03-8.37-14.69-17.47-19.8-27.07-1.63-3.04-3.14-6.25-4.51-9.52-5.8-13.91-8.69-28.97-8.6-44.75.04-7.44.03-93.35-.01-116.98-.01-4.59 1.76-8.89 4.98-12.12 3.2-3.19 7.62-5.03 12.14-5.03 4.56 0 8.85 1.78 12.08 5.02 29.29 29.28 149.3 148.99 174.26 173.63 39.81 39.3 83.82 59.85 130.81 61.07 6.18.16 11.82 3.66 14.71 9.12 2.88 5.45 2.6 12.07-.75 17.28-28.72 44.59-77.02 71.21-129.22 71.21m69.71-291.62c-.81 0-116.9-.46-116.9-.46-6.95 0-13.15-4.15-15.81-10.56a17.067 17.067 0 0 1 3.72-18.66c28.34-28.32 148.09-147.94 172.26-171.97 43.61-43.35 65.43-83.62 70.74-130.58.2-1.73.35-3.46.48-5.17.65-8.9 8.15-15.86 17.07-15.86 3.42 0 6.74 1.01 9.58 2.93 6.52 4.38 12.68 9.28 18.31 14.56 64.18 60.18 61.51 153.17 18.74 202.27-29.07 33.38-105.98 110.01-112.68 114.65a99.106 99.106 0 0 1-9.33 5.73c-16.13 8.7-35.03 13.12-56.18 13.12m-105.52-167.88c-4.56 0-8.85-1.78-12.09-5.02-25.7-25.7-147.66-147.38-174.26-173.63-39.81-39.3-83.82-59.85-130.8-61.07a17.174 17.174 0 0 1-14.71-9.11c-2.89-5.46-2.6-12.08.75-17.29 28.71-44.59 77.01-71.21 129.21-71.21h.01c38.84 0 76.49 14.95 106 42.1 22.84 21.01 94 95.39 100.65 108.32 1.62 3.15 3.09 6.38 4.36 9.58 5.39 13.49 8.07 28.02 7.99 43.2-.05 7.83-.03 92.71.01 116.98.01 4.59-1.76 8.89-4.99 12.12-3.19 3.2-7.62 5.03-12.13 5.03" paint-order="stroke" style="stroke:none;stroke-width:1;stroke-dasharray:none;stroke-linecap:butt;stroke-dashoffset:0;stroke-linejoin:miter;stroke-miterlimit:4;fill:#ffde59;fill-rule:nonzero;opacity:1" transform="matrix(.33 0 0 -.33 -123.33 1021.864)" vector-effect="non-scaling-stroke"/><path d="M1437.39 1353.03h.01c.68 0 84.51.33 109.75.43-21.63 5.08-108.25 25.4-108.93 25.56l-.01.01c-21.19 5.05-38.97 14.13-52.84 26.95-5.68 5.26-70.21 107.45-89.49 144.27-22.82 43.61-17.53 106.3 19.41 153.14-2.73 1.83-5.99 2.91-9.48 2.91-3.42 0-6.73-1.02-9.58-2.94-6.52-4.39-12.68-9.29-18.3-14.56-64.19-60.18-61.51-153.17-18.74-202.28 27.3-31.34 113.8-115.75 120.54-119.54 16.48-9.25 35.88-13.95 57.66-13.95m114.07 299.67c3.58 15.36 9.89 29.33 18.76 41.52 2.09 2.87 4.31 5.63 6.59 8.22 7.21 8.15 15.8 15.45 25.55 21.72 32.02 20.59 63.49 40.59 96.42 58.98 35.01 19.56 75.1 25.35 112.89 16.33a151.754 151.754 0 0 0 60.9-30.16c.08.15.17.29.25.44 2.88 5.45 2.6 12.07-.75 17.29-28.72 44.58-77.02 71.2-129.22 71.2-38.84 0-76.49-14.95-106.01-42.1-27.76-25.54-53.72-52.3-80.08-79.76-8.03-8.37-14.69-17.47-19.8-27.07-1.63-3.04-3.14-6.25-4.51-9.52-5.8-13.91-8.69-28.97-8.6-44.75.04-7.44.03-93.35-.01-116.98 0-.49.03-.97.06-1.45.08.77.19 1.54.38 2.3 5.52 22.98 25.49 106.54 27.18 113.79m439.29-219.58c-29.07 33.38-105.98 110.01-112.68 114.65a99.106 99.106 0 0 1-9.33 5.73c-16.13 8.7-35.03 13.12-56.18 13.12-.69 0-84.53-.33-109.77-.43 21.63-5.08 108.26-25.41 108.95-25.57 20.57-4.91 37.93-13.59 51.6-25.81 2.72-2.43 5.33-5.04 7.74-7.73 5.44-6.08 62.45-98.47 82.97-137.68 22.83-43.62 17.54-106.3-19.41-153.14 2.73-1.83 5.99-2.9 9.48-2.9 3.42 0 6.74 1.01 9.58 2.93 6.52 4.38 12.68 9.28 18.31 14.56 64.18 60.18 61.51 153.17 18.74 202.27m-294.16-165.71c-3.44-14.78-9.43-28.3-17.8-40.17-1.98-2.82-4.16-5.61-6.47-8.3-9.47-11.03-95.96-66.86-123.05-81.98-35.01-19.56-75.11-25.35-112.88-16.33h-.01a151.746 151.746 0 0 0-60.76 30.04c-.15-.25-.3-.5-.44-.76-2.89-5.46-2.6-12.08.75-17.29 28.71-44.59 77.01-71.21 129.21-71.21h.01c38.84 0 76.49 14.95 106 42.1 22.84 21.01 94 95.39 100.65 108.32 1.62 3.15 3.09 6.38 4.36 9.58 5.39 13.49 8.07 28.02 7.99 43.2-.05 7.83-.03 92.71.01 116.98 0 .46-.03.91-.06 1.35-.08-.58-.19-1.17-.33-1.75-5.68-23.6-25.41-106.16-27.18-113.78" paint-order="stroke" style="stroke:none;stroke-width:1;stroke-dasharray:none;stroke-linecap:butt;stroke-dashoffset:0;stroke-linejoin:miter;stroke-miterlimit:4;fill:#ff5758;fill-rule:nonzero;opacity:1" transform="matrix(.33 0 0 -.33 -123.33 1021.864)" vector-effect="non-scaling-stroke"/></svg>